<svg width="60" height="60" viewBox="0 0 60 60" fill="none" xmlns="http://www.w3.org/2000/svg">
<path d="M43 29.3119C43 30.9229 42.6508 32.5181 41.9724 34.0064C41.2939 35.4948 40.2995 36.8471 39.0459 37.9863C37.7924 39.1254 36.3041 40.029 34.6662 40.6455C33.0283 41.262 31.2728 41.5793 29.5 41.5793C27.7272 41.5793 25.9717 41.262 24.3338 40.6455C22.6959 40.029 21.2076 39.1254 19.9541 37.9863C18.7005 36.8471 17.7061 35.4948 17.0276 34.0064C16.3492 32.5181 16 30.9229 16 29.3119L16 15M43 29.3119V15M43 29.3119V45" stroke="black" stroke-width="6"/>
<path d="M5 2H55V-2H5V2ZM58 5V55H62V5H58ZM55 58H5V62H55V58ZM2 55V5H-2V55H2ZM5 58C3.34315 58 2 56.6569 2 55H-2C-2 58.866 1.134 62 5 62V58ZM58 55C58 56.6569 56.6569 58 55 58V62C58.866 62 62 58.866 62 55H58ZM55 2C56.6569 2 58 3.34315 58 5H62C62 1.13401 58.866 -2 55 -2V2ZM5 -2C1.13401 -2 -2 1.134 -2 5H2C2 3.34315 3.34315 2 5 2V-2Z" fill="black"/>
</svg>
